# xmcd
#
# Track frame offsets: 
#        150
#        18379
#        69098
#        95525
#        104637
#        140100
#        164482
#        197973
#        218608
#        245049
#        260123
#        284126
#
# Disc length: 3994 seconds
#
# Revision: 1
# Processed by: cddbd v1.5.2PL0 Copyright (c) Steve Scherf et al.
# Submitted via: ExactAudioCopy v0.99pb4
#
DISCID=c30f980c
DTITLE=Various Artist - In Paradisum Vol. 2 - Spiritual Classical Melodies, C
DTITLE=D 1
DYEAR=1900
DGENRE=Other
TTITLE0=Pie Jesu, from Reqiem (Gabriel Fauré)
TTITLE1=Stabat Mater (Giovanni Pierluigi Palestrina)
TTITLE2=Urlicht, from Symphony No.2 "Resurrection" (Gustav Mahler)
TTITLE3=Hear my Prayer, o Lord (Henry Purcell)
TTITLE4=Hymn of th Cherubim (Pyotr Ilyitch Tchaikovsky)
TTITLE5=Sancta Mater, from Stabat Mater (Giovanni Battista Pergolesi)
TTITLE6=Kyrie, from Mass No.5 in A flat major (Franz Schubert)
TTITLE7=Déploration sur le mort de Johannes Ockeghem (Josquin Desprez)
TTITLE8=Wie lieblich sind deine Wohnungen, from Ein deutsches Requiem 
TTITLE8=(Johannes Brahms)
TTITLE9=Crucifixus (Antonio Lotti)
TTITLE10=Es ist vollbracht, from Sieben letzte Worte (Joseph Haydn)
TTITLE11=The Madonna of Frydeck (Leos Janacek)
EXTD=
EXTT0=
EXTT1=
EXTT2=
EXTT3=
EXTT4=
EXTT5=
EXTT6=
EXTT7=
EXTT8=
EXTT9=
EXTT10=
EXTT11=
PLAYORDER=
